<?xml version="1.0" encoding="utf-8"?>
<!-- Generator: Adobe Illustrator 21.1.0, SVG Export Plug-In . SVG Version: 6.00 Build 0)  -->
<svg version="1.1" id="Layer_1" xmlns="http://www.w3.org/2000/svg" xmlns:xlink="http://www.w3.org/1999/xlink" x="0px" y="0px"
	 viewBox="0 0 1000 1000" style="enable-background:new 0 0 1000 1000;" xml:space="preserve">
<style type="text/css">
	.st0{fill:#FFFFFF;}
</style>
<g>
	<path class="st0" d="M663.3,888V438.7H694c16.9,0,30.6,13.8,30.6,30.6v285.9c0,73.2,59.5,132.7,132.7,132.7S990,828.4,990,755.2
		V205.6c0-28.8-11.9-54.7-30.8-73.2L850.9,24.9c-19.6-19.6-51.2-19.6-70.8,0s-19.6,51.2,0,70.8l70.3,70.5l-51.9,54.1
		c-16.9,17.4-16.9,45.3,0,62.8c8.4,9,19.6,13.2,30.8,13l58.5-0.2v459.5c0,16.9-13.8,30.6-30.6,30.6c-16.9,0-30.6-13.8-30.6-30.6
		v-286c0-73.2-59.5-132.7-132.7-132.7h-30.6v-245c0-45.1-36.5-81.7-81.7-81.7H153c-45.1,0-81.7,36.5-81.7,81.7V888H61
		c-28.3,0-51,22.9-51,51c0,28.3,22.9,51,51,51h612.6c28.3,0,51-22.9,51-51c0-28.3-22.9-51-51-51H663.3L663.3,888z M218.3,112h298
		c25,0,45,20,45,45v216.4c0,25-20,45-45,45h-298c-25,0-45-20-45-45V157C173.3,132,193.3,112,218.3,112L218.3,112z"/>
</g>
</svg>
